<?xml version="1.0" encoding="utf-8"?>
<!-- Generator: Adobe Illustrator 25.4.1, SVG Export Plug-In . SVG Version: 6.00 Build 0)  -->
<svg version="1.1" id="Layer_1" xmlns="http://www.w3.org/2000/svg" xmlns:xlink="http://www.w3.org/1999/xlink" x="0px" y="0px"
	 viewBox="0 0 595.3 841.9" style="enable-background:new 0 0 595.3 841.9;" xml:space="preserve">
<style type="text/css">
	.st0{fill:#FEF4F4;}
</style>
<path class="st0" d="M14.1,509.6c-1.8-40.7,0-37,49.4-42.5c50.3-5.9,81.4,20.6,111.1,50.8c46.7,48.5,63.1,141.3,29.7,198.5
	C174.2,768.5,136.2,816,75.9,838c-9.6,3.7-20.1,4.6-30.6,5.5c-20.1,1.8-30.2-6.9-27.4-32c0-93.8,0-183.4,0-273.1
	C17.8,528.8,15.5,519.2,14.1,509.6z"/>
<path class="st0" d="M42.9,56.8c16-8.2,29.7-17.4,45.3-20.6c43.5-9.1,86.4-12.3,118.5,28.4c6.4,8.2,13.3,16.9,16,26.5
	c22.4,74.6-21.5,136.3-98.8,139.5c-3.7,0-7.3,0.9-14.2,1.8c0,15.1-0.5,30.2,0,45.3c1.4,37,2.7,74.1,4.1,111.1
	c0,4.6-0.5,9.1,0.5,13.7c5,32.9-2.7,43.9-35.7,47.6c-22,2.3-32-6.4-33.4-29.3c-1.4-36.1-3.2-72.3-4.6-108.4
	c-1.8-41.6-4.6-83.2-4.1-124.9C37,144.6,39.7,101.6,42.9,56.8z"/>
<path class="st0" d="M306.8,518.7c0.5-19.2,1.4-38.9,2.3-58.1c0-2.3,0.9-4.6,1.8-6.4c5-11.4,34.3-22.4,49.9-16.5
	c14.2,5.5,15.6,16.9,15.1,32.9c-0.9,62.2,2.7,124.4,2.3,187.1c0,34.8,9.6,71.4-11.9,104.3c-23.8,36.1-97.4,45.3-117.1,13.7
	c-9.1-14.6-15.1-32.9-16-50.3c-3.2-57.6-5-115.3-4.6-172.9c0-34.8,4.6-69.1,9.1-103.4c0.9-7.8,12.3-19.2,19.2-19.2
	c7.3,0,19.7,10.1,21,17.4c6.4,30.6,11,62.2,13.7,93.8c3.2,38.4,3.2,77.3,5,115.7c0.5,5.5,3.2,11.4,7.8,17.8c2.3-0.9,1.8-2.7,1.4-4.1
	c0-6.4,0-12.3,0.9-22.4C307.8,602,307.3,560.3,306.8,518.7 M310.5,699.4c-0.9-6.4-1.8-12.8-2.3-19.2c-2.3,0.5-4.6,0.9-6.9,0.9
	c0.5,15.1,1.4,29.7,1.8,44.8c2.3,0,5-0.5,7.3-0.5C310.5,718.1,310.5,710.8,310.5,699.4z"/>
<path class="st0" d="M274.4,263.5c-12.3,44.4-23.8,87.4-36.1,129.9c-2.3,8.7-5.5,18.8-11.9,23.8c-6.4,5.5-17.4,8.2-26.1,8.2
	c-2.3,0-8.2-14.2-6.9-20.6c17.8-97.4,36.6-194.4,55.3-291.8c2.3-12.3,5-25.2,7.8-37.5c5-22,33.8-41.6,55.3-35.7
	c5.5,1.4,11.4,10.1,12.8,16c11.4,71.4,22.4,142.7,32.9,214.1c5,33.4,10.1,67.2,13.3,100.6c1.8,18.3-13.3,31.6-32.5,32.9
	c-19.2,1.4-33.8-1.4-36.1-25.6c-5-47.1-12.3-93.8-19.2-143.6C278.5,245.7,276.7,253.9,274.4,263.5z"/>
<path class="st0" d="M504.9,742.8c-27.9-11.4-24.2-37.5-28.8-58.1c-5.9-26.5-7.8-53.5-12.8-86.9c-5.9,27.4-10.1,49.4-15.6,70.9
	c-5.9,24.2-11.4,48.5-19.7,71.8c-5.5,16-15.6,30.6-42.1,22.9c2.7-32.9,3.7-67.7,9.1-101.5c10.1-68.1,23.3-136.3,33.8-204.4
	c5-33.4,10.5-40.2,39.8-48.5c20.6-5.9,30.2,2.3,33.8,20.6c9.6,50.3,18.8,100.6,27.9,150.5c6.9,36.1,12.8,72.3,20.6,108.4
	C557.9,720.9,542.4,748.8,504.9,742.8z"/>
<path class="st0" d="M570.7,80.1c-33.4,2.3-64.9,4.6-98.3,6.9c0.9,19.7,2.3,39.8,3.2,59.5c2.7,77.3,5.9,154.6,8.2,231.9
	c0.5,18.3-20.1,30.6-45.3,31.1c-22.4,0.5-23.3-14.2-22.9-30.6c0-71.4-0.5-143.2,0.5-214.5c0.5-27,3.7-54,5.5-78.7
	c-28.4-15.6-64.5-2.7-86.4-27.4c0.9-3.2,1.4-5.9,2.3-9.1c11-1.8,21.5-4.6,32.5-5c32.5-0.5,65.4,0.5,97.9-0.5c32.5-0.9,64.5-5.5,97-5
	c14.2,0,38.9,6.4,39.8,12.8C607.8,69.6,591.8,79.2,570.7,80.1z"/>
<path class="st0" d="M306.4,520.6c0.9,39.3,1.4,81,0.9,124.4C306.4,605.6,306.4,564,306.4,520.6z"/>
</svg>
