<?xml version="1.0" encoding="utf-8"?>
<!-- Generator: Adobe Illustrator 25.4.1, SVG Export Plug-In . SVG Version: 6.00 Build 0)  -->
<svg version="1.1" id="Layer_1" xmlns="http://www.w3.org/2000/svg" xmlns:xlink="http://www.w3.org/1999/xlink" x="0px" y="0px"
	 viewBox="0 0 595.3 200" style="enable-background:new 0 0 595.3 200;" xml:space="preserve">
<style type="text/css">
	.st0{fill:#1D9246;}
	.st1{fill:#1C9146;}
	.st2{fill:#1D9247;}
	.st3{fill:#1E9247;}
	.st4{fill:#62B077;}
	.st5{fill:#359C57;}
</style>
<path d="M377.3,62.5c0-21.7,0-42.8,0-64c46.3,0,92.7,0,139,0c0,66.7,0,133.3,0,200c-46.3,0-92.7,0-139,0
	C377.3,153.3,377.3,108.1,377.3,62.5 M445.4,148.2c-0.4-1.2-1.1-2.4-1.1-3.7c-0.4-8.4-0.5-16.9-1.1-25.3c-0.6-6.9-1.6-13.7-3-20.5
	c-0.3-1.6-3-3.9-4.6-3.8c-1.5,0-4,2.5-4.2,4.2c-1.1,7.5-2,15.1-2,22.6c-0.1,12.6,0.3,25.2,1,37.8c0.2,3.7,1.5,7.8,3.5,11
	c4.3,6.9,20.4,4.9,25.6-3c4.8-7.2,2.6-15.1,2.6-22.8c0-13.6-0.7-27.2-0.5-40.9c0.1-3.5-0.2-6-3.3-7.2c-3.4-1.3-9.8,1.1-10.9,3.6
	c-0.2,0.5-0.4,0.9-0.4,1.4c-0.2,4.2-0.3,8.5-0.6,13.7c0,9,0.1,18.1,0,27.9c0,1.4,0,2.7,0,4.7C446.2,148.2,446.2,148.5,445.4,148.2
	 M383.2,179.4c-0.6,4.6,1.6,6.5,6,6.1c2.2-0.2,4.6-0.5,6.7-1.2c13.2-4.7,21.5-15.2,28.1-26.6c7.2-12.5,3.7-32.8-6.5-43.4
	c-6.5-6.7-13.3-12.4-24.3-11.1c-10.8,1.2-11.2,0.4-10.9,10.3c0,20.4,0,40.7,0,61.1C382.3,175.8,382.9,177.2,383.2,179.4 M388.4,13.8
	c-0.4,9.4-1,18.9-1.1,28.3c0,9.1,0.6,18.2,0.9,27.3c0.3,7.9,0.7,15.8,1,23.7c0.2,4.9,2.4,6.9,7.3,6.4c7.2-0.8,9-3.1,7.8-10.4
	c-0.2-1-0.1-2-0.1-3c-0.3-8.1-0.7-16.2-0.9-24.3c-0.1-3.3,0-6.5,0-9.9c1.5-0.2,2.3-0.3,3.1-0.4c16.8-0.7,26.5-14.2,21.6-30.5
	c-0.6-2.1-2.1-4.1-3.5-5.8c-7-8.9-16.4-8.2-25.9-6.2C395.2,9.6,392.2,11.7,388.4,13.8 M439.3,58.3c0.5-1.7,0.9-3.4,1.6-5.8
	c1.5,10.9,3.1,21.1,4.2,31.4c0.6,5.3,3.8,5.9,7.9,5.6c4.2-0.3,7.5-3.3,7.1-7.2c-0.7-7.4-1.8-14.7-2.9-22
	c-2.3-15.6-4.7-31.2-7.2-46.8c-0.2-1.3-1.6-3.2-2.8-3.5c-4.7-1.2-11,3-12.1,7.8c-0.6,2.7-1.2,5.4-1.7,8.2
	c-4.1,21.3-8.2,42.5-12.1,63.8c-0.3,1.4,1,4.5,1.5,4.5c2-0.1,4.3-0.6,5.7-1.8c1.4-1.2,2.1-3.4,2.6-5.2
	C434.1,77.7,436.6,68.4,439.3,58.3 M490.1,163.5c7.8,1.3,11.2-4.8,9.7-12c-1.6-7.9-3-15.8-4.5-23.7c-2-11-4-22-6.1-32.9
	c-0.8-4-2.9-5.8-7.4-4.5c-6.4,1.8-7.6,3.3-8.7,10.6c-2.3,14.9-5.1,29.7-7.4,44.7c-1.1,7.4-1.3,15-2,22.2c5.8,1.7,7.9-1.5,9.2-5
	c1.8-5.1,3-10.4,4.3-15.7c1.2-4.7,2.1-9.5,3.4-15.5c1,7.3,1.5,13.2,2.8,19C484.4,155.3,483.7,161,490.1,163.5 M504.6,18.5
	c4.2-0.2,7.6-2.3,7-6.3c-0.2-1.4-5.6-2.8-8.7-2.8c-7-0.1-14.1,0.9-21.2,1.1c-7.1,0.2-14.3,0-21.4,0.1c-2.4,0-4.7,0.7-7.1,1.1
	c-0.2,0.7-0.3,1.3-0.5,2c4.7,5.4,12.7,2.6,18.9,6c-0.4,5.4-1.2,11.3-1.2,17.2c-0.2,15.6,0,31.3-0.1,46.9c0,3.6,0.1,6.8,5,6.7
	c5.5-0.1,10-2.8,9.9-6.8c-0.5-16.9-1.2-33.8-1.8-50.7c-0.2-4.4-0.5-8.7-0.7-13C489.9,19.5,496.8,19,504.6,18.5z"/>
<path class="st0" d="M234.3,115c-0.4-8.9,0-8.1,10.8-9.3c11-1.3,17.8,4.5,24.3,11.1c10.2,10.6,13.8,30.9,6.5,43.4
	c-6.6,11.4-14.9,21.8-28.1,26.6c-2.1,0.8-4.4,1-6.7,1.2c-4.4,0.4-6.6-1.5-6-7c0-20.5,0-40.1,0-59.7
	C235.1,119.2,234.6,117.1,234.3,115z"/>
<path class="st0" d="M240.6,16c3.5-1.8,6.5-3.8,9.9-4.5c9.5-2,18.9-2.7,25.9,6.2c1.4,1.8,2.9,3.7,3.5,5.8
	c4.9,16.3-4.7,29.8-21.6,30.5c-0.8,0-1.6,0.2-3.1,0.4c0,3.3-0.1,6.6,0,9.9c0.3,8.1,0.6,16.2,0.9,24.3c0,1-0.1,2,0.1,3
	c1.1,7.2-0.6,9.6-7.8,10.4c-4.8,0.5-7-1.4-7.3-6.4c-0.3-7.9-0.7-15.8-1-23.7c-0.4-9.1-1-18.2-0.9-27.3
	C239.3,35.2,239.9,25.8,240.6,16z"/>
<path class="st1" d="M298.2,119.4c0.1-4.2,0.3-8.5,0.5-12.7c0-0.5,0.2-1,0.4-1.4c1.1-2.5,7.5-4.9,10.9-3.6c3.1,1.2,3.4,3.7,3.3,7.2
	c-0.2,13.6,0.6,27.2,0.5,40.9c0,7.6,2.1,15.6-2.6,22.8c-5.2,7.9-21.3,9.9-25.6,3c-2-3.2-3.3-7.2-3.5-11c-0.7-12.6-1.1-25.2-1-37.8
	c0-7.6,1-15.1,2-22.6c0.2-1.7,2.7-4.2,4.2-4.2c1.6,0,4.3,2.2,4.6,3.8c1.4,6.7,2.4,13.6,3,20.5c0.7,8.4,0.7,16.9,1.1,25.3
	c0.1,1.2,0.7,2.5,1.7,3.9c0.5-0.2,0.4-0.6,0.3-0.9c0-1.4,0-2.7,0.2-4.9C298.4,137.6,298.3,128.5,298.2,119.4 M299.1,159
	c-0.2-1.4-0.4-2.8-0.5-4.2c-0.5,0.1-1,0.2-1.5,0.2c0.1,3.3,0.3,6.5,0.4,9.8c0.5,0,1.1-0.1,1.6-0.1
	C299.1,163.1,299.1,161.4,299.1,159z"/>
<path class="st2" d="M291.2,61.2c-2.7,9.7-5.2,19.1-7.9,28.4c-0.5,1.9-1.2,4.1-2.6,5.2c-1.4,1.2-3.8,1.8-5.7,1.8
	c-0.5,0-1.8-3.1-1.5-4.5c3.9-21.3,8-42.5,12.1-63.8c0.5-2.7,1.1-5.5,1.7-8.2c1.1-4.8,7.4-9.1,12.1-7.8c1.2,0.3,2.5,2.2,2.8,3.5
	c2.5,15.6,4.9,31.2,7.2,46.8c1.1,7.3,2.2,14.7,2.9,22c0.4,4-2.9,6.9-7.1,7.2c-4.2,0.3-7.4-0.3-7.9-5.6c-1.1-10.3-2.7-20.5-4.2-31.4
	C292.1,57.3,291.7,59.1,291.2,61.2z"/>
<path class="st3" d="M341.6,166c-6.1-2.5-5.3-8.2-6.3-12.7c-1.3-5.8-1.7-11.7-2.8-19c-1.3,6-2.2,10.8-3.4,15.5
	c-1.3,5.3-2.5,10.6-4.3,15.7c-1.2,3.5-3.4,6.7-9.2,5c0.6-7.2,0.8-14.8,2-22.2c2.2-14.9,5.1-29.8,7.4-44.7c1.1-7.3,2.3-8.8,8.7-10.6
	c4.5-1.3,6.6,0.5,7.4,4.5c2.1,11,4.1,22,6.1,32.9c1.5,7.9,2.8,15.8,4.5,23.7C353.2,161.2,349.8,167.3,341.6,166z"/>
<path class="st3" d="M356,21.1c-7.3,0.5-14.2,1-21.5,1.5c0.2,4.3,0.5,8.7,0.7,13c0.6,16.9,1.3,33.8,1.8,50.7c0.1,4-4.4,6.7-9.9,6.8
	c-4.9,0.1-5.1-3.1-5-6.7c0-15.6-0.1-31.3,0.1-46.9c0.1-5.9,0.8-11.8,1.2-17.2c-6.2-3.4-14.1-0.6-18.9-6c0.2-0.7,0.3-1.3,0.5-2
	c2.4-0.4,4.7-1,7.1-1.1c7.1-0.1,14.3,0.1,21.4-0.1c7.1-0.2,14.1-1.2,21.2-1.1c3.1,0,8.5,1.4,8.7,2.8C364.1,18.8,360.6,20.9,356,21.1
	z"/>
<path class="st4" d="M234.2,115.4c0.4,1.6,0.9,3.7,0.9,5.8c0.1,19.6,0,39.2,0,59.3c-0.4-0.9-0.9-2.2-0.9-3.6
	C234.1,156.6,234.1,136.3,234.2,115.4z"/>
<path class="st5" d="M298.2,117.4c0.2,8.6,0.3,17.7,0.2,27.2C298.2,136,298.2,126.9,298.2,117.4z"/>
<path d="M298.2,150.2c0.1,0.1,0.2,0.4,0.1,0.9C298.1,151,298.1,150.8,298.2,150.2z"/>
</svg>
